<svg width="42" height="43" viewBox="0 0 42 43" fill="none" xmlns="http://www.w3.org/2000/svg">
<path d="M13.0289 37.5355C13.0289 39.6256 11.3346 41.32 9.24448 41.32C7.15437 41.32 5.46 39.6256 5.46 37.5355C5.46 35.4454 7.15437 33.751 9.24448 33.751C11.3346 33.751 13.0289 35.4454 13.0289 37.5355Z" stroke="#212121" stroke-width="3.36"/>
<path d="M38.4 30.3147C38.4 32.4048 36.7056 34.0992 34.6155 34.0992C32.5254 34.0992 30.831 32.4048 30.831 30.3147C30.831 28.2246 32.5254 26.5302 34.6155 26.5302C36.7056 26.5302 38.4 28.2246 38.4 30.3147Z" stroke="#212121" stroke-width="3.36"/>
<path d="M12.9714 37.2131V13.833C12.9714 10.6909 15.1181 7.95867 18.1626 7.21707L38.3422 2.26001V29.9922" stroke="#212121" stroke-width="3.36" stroke-miterlimit="10"/>
<path d="M12.9714 16.1749L25.6568 13.0524L38.3422 9.92981" stroke="#212121" stroke-width="3.36" stroke-miterlimit="10"/>
</svg>
